<svg width="177" height="504" viewBox="0 0 177 504" fill="none" xmlns="http://www.w3.org/2000/svg">
<path d="M63.1501 464.991V478.451L86.2201 477.831L87.0701 465.641L63.1501 464.991Z" fill="#E8A185"/>
<path d="M88.4301 476.791L92.0001 480.161L112.87 499.281C114.25 500.551 113.33 502.851 111.46 502.811L64.4301 501.841C63.1701 501.811 62.1801 500.761 62.2301 499.511L62.4401 477.481L88.4301 476.791Z" fill="#E16C2E"/>
<path d="M112.87 499.291L112.14 498.621C111.79 498.941 111.32 499.151 110.76 499.141L63.7301 498.171C63.1501 498.161 62.6301 497.921 62.2401 497.551L62.2201 499.501C62.1701 500.761 63.1601 501.811 64.4201 501.831L111.45 502.801C113.33 502.851 114.25 500.551 112.87 499.291Z" fill="#111111"/>
<path d="M106.05 499.401L62.2801 498.721C62.0001 498.721 61.7802 498.491 61.7902 498.211C61.7902 497.931 61.9801 497.711 62.3001 497.721L106.06 498.401C106.34 498.401 106.56 498.631 106.55 498.911C106.55 499.181 106.32 499.401 106.05 499.401Z" fill="white"/>
<path d="M72.3101 492.011C72.0301 492.011 71.7402 491.981 71.4502 491.931C70.3002 491.701 69.3101 491.041 68.6601 490.071C68.0101 489.101 67.7701 487.931 68.0001 486.781C68.2301 485.631 68.8901 484.641 69.8601 483.991C70.8301 483.341 72.0001 483.101 73.1501 483.331C74.3001 483.561 75.2901 484.221 75.9401 485.191C76.5901 486.161 76.8301 487.331 76.6001 488.481C76.3701 489.631 75.7101 490.621 74.7401 491.271C74.0101 491.761 73.1701 492.011 72.3101 492.011ZM72.3001 484.251C71.6401 484.251 70.9901 484.451 70.4201 484.821C69.6701 485.321 69.1601 486.091 68.9901 486.981C68.6301 488.811 69.8201 490.591 71.6501 490.951C72.5401 491.121 73.4401 490.941 74.1901 490.441C74.9401 489.941 75.4502 489.171 75.6202 488.291C75.7902 487.401 75.6101 486.501 75.1101 485.751C74.6101 485.001 73.8401 484.491 72.9601 484.321C72.7401 484.271 72.5201 484.251 72.3001 484.251Z" fill="white"/>
<path d="M88.0301 484.931C87.9101 484.931 87.7901 484.891 87.6901 484.801C87.4901 484.611 87.4801 484.301 87.6601 484.091L91.6301 479.821C91.8201 479.621 92.1301 479.601 92.3401 479.791C92.5401 479.981 92.5501 480.291 92.3701 480.501L88.4001 484.771C88.3001 484.881 88.1701 484.931 88.0301 484.931Z" fill="white"/>
<path d="M91.2501 488.011C91.1301 488.011 91.0101 487.971 90.9101 487.881C90.7101 487.691 90.7001 487.381 90.8801 487.171L94.8501 482.901C95.0401 482.701 95.3501 482.691 95.5601 482.871C95.7601 483.061 95.7701 483.371 95.5901 483.581L91.6201 487.851C91.5101 487.951 91.3801 488.011 91.2501 488.011Z" fill="white"/>
<path d="M94.2701 491.021C94.1501 491.021 94.0301 490.981 93.9301 490.891C93.7301 490.701 93.7201 490.391 93.9001 490.181L97.8701 485.911C98.0601 485.711 98.3701 485.691 98.5801 485.881C98.7801 486.071 98.7901 486.381 98.6101 486.591L94.6401 490.861C94.5301 490.971 94.4001 491.021 94.2701 491.021Z" fill="white"/>
<path d="M88.2101 479.581C88.1101 479.581 88.0101 479.561 87.9201 479.511C86.9201 479.011 84.6701 473.551 84.5201 472.701C84.2801 471.331 85.1901 470.031 86.5501 469.781C87.2101 469.661 87.8801 469.811 88.4301 470.191C88.9801 470.571 89.3501 471.151 89.4701 471.811C89.5401 472.221 89.9801 478.761 88.4701 479.511C88.3901 479.561 88.3001 479.581 88.2101 479.581ZM85.5001 472.531C85.6601 473.461 87.4101 477.321 88.1701 478.391C88.6201 477.301 88.7001 473.261 88.4801 472.001C88.4101 471.601 88.1901 471.251 87.8601 471.021C87.5301 470.791 87.1301 470.701 86.7301 470.771C85.9001 470.921 85.3501 471.711 85.5001 472.531Z" fill="white"/>
<path d="M88.8401 479.591C88.3801 479.591 88.0501 479.511 87.9301 479.311C87.8401 479.161 87.7501 478.901 87.8501 478.541C88.2401 477.031 91.9001 474.101 92.7501 473.611C93.9501 472.921 95.4901 473.331 96.1801 474.531C96.5201 475.111 96.6101 475.791 96.4301 476.441C96.2601 477.091 95.8401 477.631 95.2601 477.971C94.8901 478.181 90.7501 479.591 88.8401 479.591ZM94.0001 474.271C93.7401 474.271 93.4801 474.341 93.2401 474.471C92.1501 475.101 89.2501 477.661 88.8501 478.631C90.0301 478.561 93.9201 477.571 94.7601 477.091C95.1101 476.891 95.3601 476.561 95.4601 476.171C95.5601 475.781 95.5101 475.371 95.3101 475.021C95.0301 474.541 94.5201 474.271 94.0001 474.271Z" fill="white"/>
<path d="M29.2101 464.991V478.451L52.2801 477.831L53.1301 465.641L29.2101 464.991Z" fill="#E8A185"/>
<path d="M53.6801 477.801L57.2501 481.171L78.1201 500.291C79.5001 501.561 78.5801 503.861 76.7101 503.821L29.6801 502.851C28.4201 502.821 27.4301 501.771 27.4801 500.521L27.6901 478.491L53.6801 477.801Z" fill="#EB8D2E"/>
<path d="M78.1201 500.291L77.3901 499.621C77.0401 499.941 76.5701 500.151 76.0101 500.141L28.9801 499.171C28.4001 499.161 27.8801 498.921 27.4901 498.551L27.4701 500.501C27.4201 501.761 28.4101 502.811 29.6701 502.831L76.7001 503.801C78.5801 503.861 79.5001 501.561 78.1201 500.291Z" fill="#111111"/>
<path d="M71.3001 500.411L27.5301 499.731C27.2501 499.731 27.0302 499.501 27.0402 499.221C27.0402 498.941 27.2301 498.701 27.5501 498.731L71.3101 499.411C71.5901 499.411 71.8101 499.641 71.8001 499.921C71.7901 500.191 71.5701 500.411 71.3001 500.411Z" fill="white"/>
<path d="M37.5601 493.021C37.2801 493.021 36.9902 492.991 36.7002 492.941C35.5502 492.711 34.5601 492.051 33.9101 491.081C33.2601 490.111 33.0201 488.941 33.2501 487.791C33.7201 485.421 36.0301 483.871 38.4001 484.341C40.7701 484.811 42.3201 487.121 41.8501 489.481C41.6201 490.631 40.9601 491.621 39.9901 492.271C39.2601 492.761 38.4201 493.021 37.5601 493.021ZM37.5501 485.251C35.9701 485.251 34.5502 486.371 34.2302 487.981C34.0602 488.871 34.2401 489.771 34.7401 490.521C35.2401 491.271 36.0101 491.781 36.8901 491.951C37.7801 492.121 38.6801 491.941 39.4301 491.441C40.1801 490.941 40.6901 490.171 40.8601 489.281C41.2201 487.451 40.0302 485.671 38.2002 485.311C37.9802 485.271 37.7701 485.251 37.5501 485.251Z" fill="white"/>
<path d="M53.2801 485.941C53.1601 485.941 53.0401 485.901 52.9401 485.811C52.7401 485.621 52.7301 485.311 52.9101 485.101L56.8801 480.831C57.0701 480.631 57.3801 480.611 57.5901 480.801C57.7901 480.991 57.8001 481.301 57.6201 481.511L53.6501 485.781C53.5501 485.891 53.4201 485.941 53.2801 485.941Z" fill="white"/>
<path d="M56.4901 489.011C56.3701 489.011 56.2501 488.971 56.1501 488.881C55.9501 488.691 55.9401 488.381 56.1201 488.171L60.0901 483.901C60.2801 483.701 60.5901 483.681 60.8001 483.871C61.0001 484.061 61.0101 484.371 60.8301 484.581L56.8601 488.851C56.7601 488.961 56.6301 489.011 56.4901 489.011Z" fill="white"/>
<path d="M59.5101 492.031C59.3901 492.031 59.2701 491.991 59.1701 491.901C58.9701 491.711 58.9601 491.401 59.1401 491.191L63.1101 486.921C63.3001 486.721 63.6101 486.701 63.8201 486.891C64.0201 487.081 64.0301 487.391 63.8501 487.601L59.8801 491.871C59.7801 491.981 59.6501 492.031 59.5101 492.031Z" fill="white"/>
<path d="M53.4601 480.591C53.3601 480.591 53.2601 480.571 53.1701 480.521C52.1601 480.021 49.9201 474.561 49.7701 473.711C49.6501 473.051 49.8001 472.381 50.1801 471.831C50.5601 471.281 51.1401 470.911 51.8001 470.791C53.1601 470.551 54.4701 471.461 54.7201 472.821C54.7901 473.241 55.2301 479.771 53.7201 480.521C53.6401 480.571 53.5501 480.591 53.4601 480.591ZM52.2401 471.761C52.1501 471.761 52.0601 471.771 51.9701 471.781C51.5701 471.851 51.2301 472.071 50.9901 472.401C50.7601 472.731 50.6701 473.131 50.7401 473.531C50.9101 474.461 52.6501 478.321 53.4101 479.391C53.8601 478.291 53.9401 474.261 53.7201 473.001C53.6001 472.271 52.9601 471.761 52.2401 471.761Z" fill="white"/>
<path d="M54.0901 480.601C53.6301 480.601 53.3001 480.521 53.1801 480.321C53.0901 480.171 53.0001 479.911 53.1001 479.551C53.4901 478.041 57.1401 475.111 58.0001 474.621C58.5801 474.281 59.2601 474.191 59.9101 474.371C60.5601 474.541 61.1001 474.961 61.4401 475.541C61.7801 476.121 61.8701 476.801 61.6901 477.451C61.5201 478.101 61.1001 478.641 60.5201 478.981C60.1301 479.191 56.0001 480.601 54.0901 480.601ZM59.2501 475.281C58.9901 475.281 58.7301 475.351 58.4901 475.481C57.4001 476.111 54.5001 478.671 54.1001 479.641C55.2801 479.571 59.1701 478.581 60.0101 478.101C60.3601 477.901 60.6101 477.571 60.7101 477.181C60.8101 476.791 60.7601 476.381 60.5601 476.031C60.3601 475.681 60.0301 475.431 59.6401 475.321C59.5101 475.301 59.3801 475.281 59.2501 475.281Z" fill="white"/>
<path d="M116.19 374.441L93.1301 287.851H61.7302L61.2101 281.871H25.9901L21.2101 295.921C18.3301 304.401 18.1701 313.581 20.7801 322.151L21.3801 324.141L25.9901 375.891L24.8201 468.211C24.8001 469.881 26.1602 471.251 27.8402 471.221L54.0201 470.861C55.4301 470.841 56.6001 469.761 56.7401 468.351L65.3601 377.461C65.4601 376.421 65.5001 375.371 65.4901 374.321L65.0902 333.501L77.4101 381.781L61.2602 466.571C60.9301 468.311 62.2601 469.921 64.0301 469.921H88.3301C90.0801 469.921 91.6202 468.791 92.1502 467.131L115.46 394.121C117.66 387.771 117.92 380.921 116.19 374.441Z" fill="#111111"/>
<path d="M65.2602 334.971C65.2402 334.971 65.2202 334.971 65.2002 334.971C64.9302 334.941 64.7302 334.691 64.7602 334.421L67.1802 313.021C67.3102 311.851 67.3501 310.661 67.2801 309.481L66.5001 295.041C66.4901 294.761 66.7001 294.531 66.9701 294.511C67.2401 294.491 67.4801 294.711 67.5001 294.981L68.2801 309.421C68.3501 310.651 68.3101 311.901 68.1701 313.121L65.7501 334.521C65.7301 334.781 65.5102 334.971 65.2602 334.971Z" fill="white"/>
<path d="M105.42 210.741L120.04 227.371L137.63 198.351L150.69 206.861L139.17 251.271C135.27 266.311 115.94 270.551 106.1 258.531L91.1902 240.321L105.42 210.741Z" fill="#E8A185"/>
<path d="M115.55 235.551C115.46 235.551 115.38 235.531 115.3 235.481C115.06 235.341 114.98 235.031 115.12 234.801L120.02 226.431C120.16 226.191 120.47 226.111 120.7 226.251C120.94 226.391 121.02 226.701 120.88 226.931L115.98 235.301C115.89 235.471 115.72 235.551 115.55 235.551Z" fill="#E06A4B"/>
<path d="M176.27 180.371H125.1V247.811H176.27V180.371Z" fill="white"/>
<path d="M152.69 193.251H131.35C131.14 193.251 130.97 193.081 130.97 192.871C130.97 192.661 131.14 192.491 131.35 192.491H152.69C152.9 192.491 153.07 192.661 153.07 192.871C153.07 193.081 152.9 193.251 152.69 193.251Z" fill="#5C69AB"/>
<path d="M155.78 202.681H131.35C131.14 202.681 130.97 202.511 130.97 202.301C130.97 202.091 131.14 201.921 131.35 201.921H155.78C155.99 201.921 156.16 202.091 156.16 202.301C156.16 202.511 155.99 202.681 155.78 202.681Z" fill="#5C69AB"/>
<path d="M155.78 233.081H131.35C131.14 233.081 130.97 232.911 130.97 232.701C130.97 232.491 131.14 232.321 131.35 232.321H155.78C155.99 232.321 156.16 232.491 156.16 232.701C156.16 232.911 155.99 233.081 155.78 233.081Z" fill="#5C69AB"/>
<path d="M169.58 209.421H131.35C131.14 209.421 130.97 209.251 130.97 209.041C130.97 208.831 131.14 208.661 131.35 208.661H169.58C169.79 208.661 169.96 208.831 169.96 209.041C169.96 209.251 169.79 209.421 169.58 209.421Z" fill="#5C69AB"/>
<path d="M169.58 225.091H131.35C131.14 225.091 130.97 224.921 130.97 224.711C130.97 224.501 131.14 224.331 131.35 224.331H169.58C169.79 224.331 169.96 224.501 169.96 224.711C169.96 224.921 169.79 225.091 169.58 225.091Z" fill="#5C69AB"/>
<path d="M169.58 202.681H158.08C157.87 202.681 157.7 202.511 157.7 202.301C157.7 202.091 157.87 201.921 158.08 201.921H169.58C169.79 201.921 169.96 202.091 169.96 202.301C169.96 202.511 169.79 202.681 169.58 202.681Z" fill="#5C69AB"/>
<path d="M142.85 217.341H131.35C131.14 217.341 130.97 217.171 130.97 216.961C130.97 216.751 131.14 216.581 131.35 216.581H142.85C143.06 216.581 143.22 216.751 143.22 216.961C143.22 217.171 143.06 217.341 142.85 217.341Z" fill="#5C69AB"/>
<path d="M144.65 172.471C146.18 172.591 147.34 173.951 147.22 175.481L146.52 184.241C146.4 185.771 145.04 186.931 143.51 186.811C141.98 186.691 140.82 185.331 140.94 183.801L141.64 175.041C141.77 173.511 143.12 172.351 144.65 172.471Z" fill="#E8A185"/>
<path d="M139.04 171.931C140.57 172.051 141.73 173.411 141.61 174.941L140.85 184.391C140.73 185.921 139.37 187.081 137.84 186.961C136.31 186.841 135.15 185.481 135.27 183.951L136.03 174.501C136.15 172.961 137.51 171.811 139.04 171.931Z" fill="#E8A185"/>
<path d="M150 174.801C151.53 174.921 152.69 176.281 152.57 177.811L152.11 183.501C151.99 185.031 150.63 186.191 149.1 186.071C147.57 185.951 146.41 184.591 146.53 183.061L146.99 177.371C147.12 175.831 148.47 174.681 150 174.801Z" fill="#E8A185"/>
<path d="M155.31 175.281C156.84 175.401 158 176.761 157.88 178.291L157.66 181.091C157.54 182.621 156.18 183.781 154.65 183.661C153.12 183.541 151.96 182.181 152.08 180.651L152.3 177.851C152.42 176.311 153.78 175.161 155.31 175.281Z" fill="#E8A185"/>
<path d="M141.08 184.431C141.07 184.431 141.06 184.431 141.04 184.431C140.76 184.411 140.56 184.171 140.58 183.901L141.21 174.991C141.23 174.721 141.46 174.501 141.74 174.531C142.02 174.551 142.22 174.791 142.2 175.061L141.57 183.971C141.56 184.231 141.34 184.431 141.08 184.431Z" fill="#E06A4B"/>
<path d="M146.92 184.771C146.91 184.771 146.89 184.771 146.88 184.771C146.6 184.751 146.4 184.511 146.42 184.231L147.04 176.051C147.06 175.781 147.3 175.571 147.58 175.591C147.86 175.611 148.06 175.851 148.04 176.131L147.42 184.311C147.39 184.581 147.18 184.771 146.92 184.771Z" fill="#E06A4B"/>
<path d="M152.38 183.761C152.37 183.761 152.36 183.761 152.36 183.761C152.08 183.751 151.87 183.511 151.88 183.241L152.19 176.801C152.2 176.521 152.44 176.311 152.71 176.321C152.99 176.331 153.2 176.571 153.19 176.841L152.88 183.281C152.86 183.551 152.64 183.761 152.38 183.761Z" fill="#E06A4B"/>
<path d="M116.24 216.741L92.3502 194.311C88.3902 189.441 82.4302 186.271 75.7102 186.081L38.9902 185.001C38.6202 185.001 38.2501 185.021 37.8801 185.051L37.8402 184.991L30.9602 185.121C20.8402 185.311 11.5102 191.271 7.68015 200.651C7.17015 201.891 6.76015 203.191 6.45015 204.531L0.080146 233.301C-0.369854 235.321 1.13015 237.251 3.20015 237.321L21.7002 237.911L17.5402 291.231H100.47L98.5702 240.711L116.38 221.911C117.78 220.441 117.71 218.121 116.24 216.741Z" fill="#5C69AB"/>
<path d="M87.6502 127.191C86.9602 123.951 84.2402 121.391 80.7602 121.071C80.4002 121.041 80.0402 121.041 79.6902 121.051C75.9202 117.801 73.2902 114.271 66.6902 115.131C64.1402 115.461 61.7802 116.771 60.3302 118.891C60.1302 119.191 59.9502 119.501 59.7902 119.831C59.6602 120.091 56.2902 120.471 55.8402 120.591C52.6902 121.461 48.6602 122.761 47.0902 125.881C46.3902 127.261 46.1802 128.811 46.1202 130.371C43.7502 132.261 42.7802 135.591 43.7402 138.611L46.2202 146.411C46.7402 146.281 47.2802 146.201 47.8402 146.201H51.3502H52.0002C53.0502 146.891 54.5202 147.581 55.1802 146.601C55.3602 146.331 56.2902 143.101 56.3002 142.791C56.3502 141.911 56.3602 141.021 56.4102 140.141C56.5002 138.411 56.3602 136.571 56.7702 134.871C57.8002 135.851 59.1902 136.451 60.7202 136.451H67.0802C68.9802 136.451 70.7002 135.661 71.9402 134.401C72.1902 134.381 72.4302 134.341 72.6702 134.291C73.5002 136.451 75.5802 138.001 78.0302 138.001H81.0102C81.0602 138.001 81.1202 137.991 81.1702 137.991C81.2302 138.171 81.2802 138.351 81.3102 138.501C81.4702 139.391 82.6702 138.801 83.8902 137.361C86.2102 136.271 87.8302 133.931 87.8302 131.191V127.201H87.6502V127.191Z" fill="#111111"/>
<path d="M78.0202 138.001C75.3702 138.001 73.1502 136.211 72.4702 133.781C71.2202 135.401 69.2702 136.441 67.0702 136.441H60.7102C58.2502 136.441 56.1602 134.901 55.3302 132.731V146.191H51.3302H47.8202C47.2602 146.191 46.7202 146.271 46.2002 146.401C43.3002 147.131 41.1302 149.761 41.1302 152.881V153.531C41.1302 157.211 44.1402 160.221 47.8202 160.221H49.6002L47.8102 182.541C47.2902 189.071 52.1502 194.781 58.6802 195.301L59.8302 195.391C66.3602 195.911 72.0702 191.051 72.5902 184.521L73.2602 176.111C79.1602 176.011 83.9102 171.211 83.9102 165.291V139.171C83.9102 138.571 83.8502 137.981 83.7502 137.401C82.9002 137.781 81.9602 137.991 80.9802 137.991H78.0202V138.001Z" fill="#E8A185"/>
<path d="M47.0602 155.791C46.9002 155.791 46.7402 155.711 46.6402 155.561C46.4902 155.331 46.5502 155.021 46.7902 154.871L48.5902 153.691L46.5302 151.401C46.3502 151.191 46.3602 150.881 46.5702 150.691C46.7702 150.511 47.0902 150.521 47.2802 150.731L49.7302 153.461C49.8302 153.571 49.8702 153.711 49.8502 153.861C49.8302 154.001 49.7502 154.131 49.6302 154.211L47.3402 155.711C47.2502 155.761 47.1502 155.791 47.0602 155.791Z" fill="#E06A4B"/>
<path d="M73.2302 156.841H71.3602C71.0802 156.841 70.8602 156.621 70.8602 156.341C70.8602 156.061 71.0802 155.841 71.3602 155.841H73.2302C73.7602 155.841 74.2502 155.611 74.5902 155.201C74.9302 154.801 75.0702 154.271 74.9802 153.751L73.8202 147.171C73.7702 146.901 73.9502 146.641 74.2302 146.591C74.5002 146.541 74.7602 146.721 74.8102 147.001L75.9702 153.581C76.1102 154.391 75.8902 155.221 75.3602 155.851C74.8302 156.481 74.0502 156.841 73.2302 156.841Z" fill="#E06A4B"/>
<path d="M80.5702 150.911C80.7002 151.651 80.2102 152.361 79.4702 152.491C78.7302 152.621 78.0202 152.131 77.8902 151.391C77.7602 150.651 78.2502 149.941 78.9902 149.811C79.7302 149.681 80.4402 150.171 80.5702 150.911Z" fill="#111111"/>
<path d="M72.0502 168.971C71.9902 168.991 71.9202 168.981 71.8602 168.951C71.8002 168.921 70.3002 168.261 69.1802 169.441C69.0702 169.551 68.8902 169.561 68.7802 169.451C68.6702 169.341 68.6602 169.161 68.7702 169.051C70.1702 167.571 72.0702 168.421 72.0902 168.431C72.2302 168.501 72.2902 168.661 72.2302 168.801C72.1902 168.901 72.1202 168.951 72.0502 168.971Z" fill="#E06A4B"/>
<path d="M60.5502 146.201C61.2602 146.381 62.1002 146.161 62.9302 146.001C63.7602 145.821 64.6002 145.661 65.3302 145.541C66.0702 145.421 66.9102 145.321 67.7602 145.241C68.6002 145.141 69.4702 145.091 70.0802 144.701C70.6702 144.331 70.8002 143.531 69.9102 142.711C69.0602 141.911 67.0702 141.201 64.6402 141.581C62.2102 141.971 60.5602 143.251 60.0402 144.271C59.4702 145.311 59.8702 146.031 60.5502 146.201Z" fill="#111111"/>
<path d="M83.7402 146.281C83.2502 146.421 82.6702 146.261 82.1002 146.131C81.5302 145.991 80.9502 145.871 80.4502 145.781C79.9402 145.691 79.3602 145.611 78.7802 145.551C78.2002 145.471 77.6002 145.441 77.1902 145.131C76.7902 144.841 76.7202 144.211 77.3602 143.571C77.9602 142.941 79.3602 142.381 81.0302 142.661C82.7002 142.961 83.8102 143.961 84.1502 144.751C84.5102 145.581 84.2202 146.151 83.7402 146.281Z" fill="#111111"/>
<path d="M68.7202 151.381C68.6602 152.201 67.9402 152.821 67.1202 152.751C66.3002 152.691 65.6802 151.971 65.7502 151.151C65.8102 150.331 66.5302 149.711 67.3502 149.781C68.1602 149.851 68.7802 150.561 68.7202 151.381Z" fill="#111111"/>
<path d="M65.6902 152.831C65.6902 152.831 67.0202 151.871 68.3102 153.011L65.6902 152.831Z" fill="#E8A185"/>
<path d="M68.3202 153.521C68.2002 153.521 68.0802 153.481 67.9902 153.401C67.0402 152.561 66.0902 153.181 65.9902 153.251C65.7602 153.411 65.4502 153.351 65.2902 153.131C65.1302 152.911 65.1802 152.601 65.4002 152.441C65.9702 152.031 67.3902 151.541 68.6402 152.651C68.8502 152.831 68.8702 153.151 68.6802 153.361C68.5902 153.461 68.4502 153.521 68.3202 153.521Z" fill="#E06A4B"/>
<path d="M78.1702 152.741C78.1702 152.741 79.3802 152.201 80.4902 152.761L78.1702 152.741Z" fill="#E8A185"/>
<path d="M80.4902 153.261C80.4102 153.261 80.3402 153.241 80.2602 153.211C79.3802 152.761 78.3802 153.191 78.3702 153.201C78.1202 153.311 77.8202 153.201 77.7102 152.941C77.6002 152.691 77.7102 152.391 77.9602 152.281C78.0202 152.251 79.4002 151.651 80.7102 152.311C80.9602 152.431 81.0502 152.741 80.9302 152.981C80.8502 153.161 80.6702 153.261 80.4902 153.261Z" fill="#E06A4B"/>
<path d="M64.4802 157.411C64.9402 157.101 65.5602 157.181 65.9702 157.551C66.7202 158.231 68.3502 159.451 70.6802 159.691C71.2502 159.751 71.5502 160.411 71.3002 160.931C70.7602 162.071 69.3102 163.841 66.3002 162.431C62.6302 160.711 63.2802 158.211 64.4802 157.411Z" fill="white"/>
<path d="M73.2102 176.181C73.2102 176.181 61.0302 176.971 58.0202 172.031C58.0202 172.031 59.6902 182.841 72.6602 183.001L73.2102 176.181Z" fill="#E06A4B"/>
<path d="M78.1601 190.571L75.3601 183.381C75.2501 181.981 73.8602 181.331 72.9802 182.261L62.7102 193.001C62.6302 193.091 62.4901 193.101 62.3901 193.021L47.1701 180.581C46.6301 180.131 45.7202 180.291 45.4302 180.891L41.1701 189.621C40.7301 190.531 40.8602 191.611 41.5102 192.381L50.4502 203.001C51.2502 203.951 52.8502 204.061 53.8202 203.231L62.2602 195.441C62.4402 195.271 62.7301 195.291 62.8901 195.471L68.2201 201.501C68.8101 202.371 69.9302 202.311 70.4502 201.371L77.7002 193.071C78.3102 192.371 78.4902 191.421 78.1601 190.571Z" fill="#5C69AB"/>
<path d="M52.2602 204.271C52.1702 204.271 52.0901 204.271 52.0001 204.261C51.2301 204.201 50.5302 203.851 50.0702 203.301L41.1302 192.681C40.3502 191.761 40.1901 190.461 40.7201 189.381L44.9802 180.651C45.1802 180.241 45.5701 179.951 46.0501 179.841C46.5601 179.731 47.1002 179.851 47.4902 180.171L62.5201 192.461L72.6202 181.901C73.1302 181.361 73.8402 181.171 74.5102 181.411C75.2402 181.671 75.7601 182.391 75.8601 183.251L78.6301 190.381C79.0302 191.401 78.8202 192.551 78.0902 193.391L70.8702 201.651C70.5402 202.221 69.9902 202.571 69.3801 202.601C68.7801 202.631 68.1902 202.321 67.8202 201.771L62.5301 195.791L54.1701 203.591C53.6401 204.031 52.9602 204.271 52.2602 204.271ZM46.4302 180.801C46.3802 180.801 46.3202 180.811 46.2702 180.821C46.0902 180.861 45.9501 180.961 45.8901 181.091L41.6302 189.821C41.2702 190.551 41.3802 191.421 41.9002 192.041L50.8402 202.661C51.1302 203.001 51.5802 203.221 52.0902 203.261C52.6202 203.301 53.1402 203.151 53.5102 202.831L61.9302 195.051C62.1202 194.881 62.3702 194.791 62.6202 194.801C62.8802 194.811 63.1101 194.931 63.2801 195.121L68.6101 201.151C68.8301 201.461 69.0802 201.611 69.3402 201.601C69.6102 201.591 69.8601 201.411 70.0201 201.121L70.0801 201.031L77.3301 192.731C77.8101 192.181 77.9501 191.421 77.6901 190.741L74.8601 183.401C74.8201 182.901 74.5501 182.481 74.1701 182.351C73.8801 182.251 73.5802 182.331 73.3402 182.581L63.0702 193.321C62.8102 193.591 62.3701 193.621 62.0801 193.381L46.8601 180.941C46.7401 180.851 46.5902 180.801 46.4302 180.801Z" fill="#111111"/>
<path d="M103.44 209.381H81.6501C81.1601 209.381 80.7601 209.781 80.7601 210.271V212.201C80.7601 212.691 81.1601 213.091 81.6501 213.091H103.44C103.93 213.091 104.33 212.691 104.33 212.201V210.271C104.33 209.781 103.93 209.381 103.44 209.381Z" fill="#EB8D2E"/>
<path d="M102.42 246.111H82.6801L79.0001 214.091H106.09L102.42 246.111Z" fill="#EB8D2E"/>
<path d="M105.6 217.571H79.5001C78.0601 217.571 76.8801 216.401 76.8801 214.951C76.8801 213.511 78.0501 212.331 79.5001 212.331H105.6C107.04 212.331 108.22 213.501 108.22 214.951C108.21 216.401 107.04 217.571 105.6 217.571Z" fill="#111111"/>
<path d="M92.5501 234.431C95.9522 234.431 98.7101 231.673 98.7101 228.271C98.7101 224.869 95.9522 222.111 92.5501 222.111C89.1481 222.111 86.3901 224.869 86.3901 228.271C86.3901 231.673 89.1481 234.431 92.5501 234.431Z" fill="#F6EEE3"/>
<path d="M106.41 232.561C106.45 229.831 104.26 229.351 102.07 229.451C103.56 229.091 104.83 228.291 104.6 226.441C103.49 221.221 97.2301 223.801 93.3101 224.881C91.4901 225.521 89.8301 226.091 88.2701 226.611C89.0001 224.861 89.7301 223.081 89.7901 221.191C89.8101 220.581 89.7201 219.901 89.2501 219.521C88.8901 219.231 88.3701 219.191 87.9201 219.311C87.4701 219.431 87.0701 219.691 86.6901 219.961C83.1101 222.441 74.1701 231.541 74.1701 231.541C73.2701 232.641 72.4601 233.841 71.7301 235.081L34.2201 246.941L35.9201 238.111L4.62014 237.191L0.870135 256.101C-0.739865 270.261 13.2101 281.111 26.5401 276.071L79.6801 255.111C81.0601 255.181 82.3401 255.061 83.3101 254.621L98.9301 247.841C101.87 246.741 103.14 242.911 100.78 242.461C103.2 242.221 105.78 241.081 105.17 238.151C105.02 236.491 103.82 236.041 102.42 236.001C104.62 235.721 106.72 235.031 106.41 232.561ZM98.8201 236.341C99.1101 236.291 99.4401 236.251 99.8001 236.221C99.4401 236.281 99.1101 236.321 98.8201 236.341Z" fill="#E8A185"/>
<path d="M34.3401 246.681C34.3101 246.681 34.2801 246.681 34.2401 246.671C33.9701 246.621 33.7901 246.361 33.8401 246.081L35.4701 237.611L39.5501 237.641H39.5601C40.3401 237.641 40.9801 237.031 41.0101 236.251L42.0901 213.301C42.1001 213.021 42.3301 212.801 42.6101 212.821C42.8901 212.831 43.1001 213.071 43.0901 213.341L42.0101 236.291C41.9501 237.611 40.8701 238.661 39.5401 238.631L36.3001 238.601L34.8201 246.251C34.7901 246.511 34.5801 246.681 34.3401 246.681Z" fill="#111111"/>
<path opacity="0.36" d="M88.2501 226.611L79.7501 230.271C79.7501 230.271 87.8301 223.891 89.4201 223.371L88.2501 226.611Z" fill="#E06A4B"/>
<path d="M96.8501 231.571C96.6401 231.571 96.4501 231.441 96.3801 231.231C96.2901 230.971 96.4301 230.681 96.6901 230.591C97.2201 230.411 101.93 228.801 102.86 228.751C103.12 228.711 103.37 228.951 103.39 229.221C103.4 229.501 103.19 229.731 102.92 229.751C102.32 229.781 98.9801 230.861 97.0201 231.531C96.9601 231.561 96.9001 231.571 96.8501 231.571Z" fill="#E06A4B"/>
<path d="M28.6301 249.411C28.4201 249.411 28.2301 249.281 28.1601 249.071C28.0701 248.811 28.2102 248.531 28.4802 248.441L39.0301 244.901C39.2901 244.811 39.5801 244.951 39.6601 245.221C39.7501 245.481 39.6102 245.761 39.3402 245.851L28.7902 249.391C28.7402 249.401 28.6801 249.411 28.6301 249.411Z" fill="#E06A4B"/>
<path d="M98.0901 237.971C97.8801 237.971 97.6801 237.841 97.6101 237.621C97.5201 237.361 97.6701 237.081 97.9301 236.991L102.71 235.451C102.97 235.371 103.25 235.511 103.34 235.771C103.42 236.031 103.28 236.311 103.02 236.401L98.2401 237.941C98.2001 237.961 98.1401 237.971 98.0901 237.971Z" fill="#E06A4B"/>
<path d="M98.1701 243.741C97.9501 243.741 97.7601 243.601 97.6901 243.381C97.6101 243.121 97.7601 242.841 98.0301 242.761L100.62 241.991C100.88 241.911 101.16 242.061 101.24 242.331C101.32 242.591 101.17 242.871 100.9 242.951L98.3101 243.721C98.2701 243.731 98.2201 243.741 98.1701 243.741Z" fill="#E06A4B"/>
<path d="M94.04 52.61H83.03C80.29 52.61 78.07 50.39 78.07 47.65C78.07 44.91 80.29 42.69 83.03 42.69H94.04C96.78 42.69 99 44.91 99 47.65C99 50.39 96.78 52.61 94.04 52.61Z" fill="#F6EEE3"/>
<path d="M94.04 53.11H83.03C80.02 53.11 77.57 50.66 77.57 47.65C77.57 44.64 80.02 42.19 83.03 42.19H94.04C97.05 42.19 99.5 44.64 99.5 47.65C99.5 50.66 97.05 53.11 94.04 53.11ZM83.03 43.18C80.57 43.18 78.57 45.18 78.57 47.64C78.57 50.1 80.57 52.1 83.03 52.1H94.04C96.5 52.1 98.5 50.1 98.5 47.64C98.5 45.18 96.5 43.18 94.04 43.18H83.03Z" fill="#5C69AB"/>
<path d="M88.53 87.19C94.2406 87.19 98.87 82.5606 98.87 76.85C98.87 71.1394 94.2406 66.51 88.53 66.51C82.8194 66.51 78.19 71.1394 78.19 76.85C78.19 82.5606 82.8194 87.19 88.53 87.19Z" fill="#F6EEE3"/>
<path d="M88.53 87.68C82.55 87.68 77.69 82.82 77.69 76.84C77.69 70.86 82.55 66 88.53 66C94.51 66 99.37 70.86 99.37 76.84C99.37 82.82 94.51 87.68 88.53 87.68ZM88.53 67.01C83.11 67.01 78.69 71.42 78.69 76.85C78.69 82.28 83.1 86.69 88.53 86.69C93.95 86.69 98.37 82.28 98.37 76.85C98.37 71.42 93.96 67.01 88.53 67.01Z" fill="#5C69AB"/>
<path d="M88.41 0H87.41V42.68H88.41V0Z" fill="#5C69AB"/>
<path d="M119.57 77.65C119.57 77.91 57.5 77.92 57.5 77.65C57.5 60.51 71.39 46.62 88.53 46.62C105.67 46.62 119.57 60.51 119.57 77.65Z" fill="#F6EEE3"/>
<path d="M88.09 78.35C80.41 78.35 72.76 78.33 67.03 78.3C57 78.24 57 78.24 57 77.65C57 60.26 71.15 46.12 88.53 46.12C105.92 46.12 120.06 60.27 120.06 77.65C120.06 78.24 120.06 78.24 109.7 78.3C103.79 78.33 95.92 78.35 88.09 78.35ZM58 77.19C63.19 77.41 113.84 77.41 119.06 77.19C118.81 60.56 105.21 47.11 88.53 47.11C71.85 47.11 58.25 60.56 58 77.19Z" fill="#5C69AB"/>
</svg>
