<svg width="236" height="460" viewBox="0 0 236 460" fill="none" xmlns="http://www.w3.org/2000/svg">
<path d="M126.495 458.671C126.463 458.671 126.425 458.663 126.394 458.656C126.184 458.601 126.06 458.384 126.122 458.182L151.314 363.761C151.368 363.552 151.578 363.436 151.787 363.49C151.997 363.544 152.121 363.761 152.059 363.963L126.867 458.384C126.82 458.555 126.665 458.671 126.495 458.671Z" fill="#111111"/>
<path d="M203.847 457.787C203.684 457.787 203.529 457.678 203.474 457.515L175.055 363.979C174.993 363.777 175.109 363.56 175.311 363.498C175.52 363.436 175.73 363.552 175.792 363.754L204.211 457.29C204.273 457.492 204.157 457.709 203.955 457.771C203.917 457.779 203.886 457.787 203.847 457.787Z" fill="#111111"/>
<path d="M190.425 241.356H177.763C164.666 241.356 154.045 251.977 154.045 265.074V352.147H130.366V365.608H200.681C208.114 365.608 214.142 359.58 214.142 352.147V265.074C214.142 251.969 203.521 241.356 190.425 241.356Z" fill="#E16C2E"/>
<path d="M145.487 264.957L134.625 274.058L123.926 252.078L123.95 252.055C123.787 251.737 123.624 251.426 123.461 251.108V251.1C120.862 246.112 118.255 241.131 115.687 236.126C115.493 235.754 115.299 235.374 114.996 235.087C114.554 234.66 113.895 234.466 113.289 234.59C112.684 234.714 112.157 235.149 111.916 235.715C111.637 236.382 111.753 237.151 111.978 237.833C112.273 238.741 112.583 239.633 112.871 240.541C113.15 241.433 112.025 242.085 111.389 241.387C109.1 238.865 106.811 236.336 104.53 233.807C104.08 233.31 103.576 232.775 102.909 232.689C102.001 232.565 101.116 233.512 101.31 234.412C101.388 234.776 101.605 235.095 101.815 235.405C103.126 237.329 104.359 239.307 105.748 241.177C106.827 242.628 107.308 243.714 108.177 244.7C107.89 244.374 107.502 243.862 107.215 243.536C105.477 241.581 103.708 239.657 102.055 237.632C101.799 237.314 101.38 237.057 101 236.926C100.744 236.84 100.465 236.832 100.209 236.91C99.9526 236.995 99.7276 237.166 99.6035 237.407C99.4638 237.686 99.4794 238.027 99.5802 238.33C99.7587 238.842 100.015 239.331 100.333 239.765C101.248 241.007 102.179 242.248 103.087 243.489C104.018 244.762 105.073 245.988 105.911 247.322C105.678 246.957 105.314 246.639 105.011 246.329C104.375 245.677 103.723 245.041 103.072 244.42C102.412 243.792 101.706 242.962 100.736 242.9C100.325 242.876 99.8595 243.039 99.6966 243.419C99.619 243.59 99.619 243.792 99.6501 243.978C99.7587 244.599 100.232 245.08 100.635 245.53C101.023 245.972 101.411 246.414 101.807 246.856C102.598 247.749 103.382 248.641 104.189 249.525C104.639 250.037 105.089 250.549 105.547 251.062L103.382 249.626C102.559 249.06 100.837 248.493 100.41 249.393C100.162 249.913 100.333 250.534 100.806 250.852L112.878 260.403L124.151 296.573C126.494 303.61 135.215 306.046 140.863 301.236L157.87 286.758L145.487 264.957Z" fill="#E8A185"/>
<path opacity="0.2" d="M145.487 264.957L134.625 274.058L123.926 252.078L123.95 252.055C123.787 251.737 123.624 251.426 123.461 251.108V251.1C120.862 246.112 118.255 241.131 115.687 236.126C115.493 235.754 115.299 235.374 114.996 235.087C114.554 234.66 113.895 234.466 113.289 234.59C112.684 234.714 112.157 235.149 111.916 235.715C111.637 236.382 111.753 237.151 111.978 237.833C112.273 238.741 112.583 239.633 112.871 240.541C113.15 241.433 112.025 242.085 111.389 241.387C109.1 238.865 106.811 236.336 104.53 233.807C104.08 233.31 103.576 232.775 102.909 232.689C102.001 232.565 101.116 233.512 101.31 234.412C101.388 234.776 101.605 235.095 101.815 235.405C103.126 237.329 104.359 239.307 105.748 241.177C106.827 242.628 107.308 243.714 108.177 244.7C107.89 244.374 107.502 243.862 107.215 243.536C105.477 241.581 103.708 239.657 102.055 237.632C101.799 237.314 101.38 237.057 101 236.926C100.744 236.84 100.465 236.832 100.209 236.91C99.9526 236.995 99.7276 237.166 99.6035 237.407C99.4638 237.686 99.4794 238.027 99.5802 238.33C99.7587 238.842 100.015 239.331 100.333 239.765C101.248 241.007 102.179 242.248 103.087 243.489C104.018 244.762 105.073 245.988 105.911 247.322C105.678 246.957 105.314 246.639 105.011 246.329C104.375 245.677 103.723 245.041 103.072 244.42C102.412 243.792 101.706 242.962 100.736 242.9C100.325 242.876 99.8595 243.039 99.6966 243.419C99.619 243.59 99.619 243.792 99.6501 243.978C99.7587 244.599 100.232 245.08 100.635 245.53C101.023 245.972 101.411 246.414 101.807 246.856C102.598 247.749 103.382 248.641 104.189 249.525C104.639 250.037 105.089 250.549 105.547 251.062L103.382 249.626C102.559 249.06 100.837 248.493 100.41 249.393C100.162 249.913 100.333 250.534 100.806 250.852L112.878 260.403L124.151 296.573C126.494 303.61 135.215 306.046 140.863 301.236L157.87 286.758L145.487 264.957Z" fill="#E06A4B"/>
<path d="M114.453 248.47C114.352 248.47 114.252 248.431 114.174 248.346C110.791 244.723 112.529 240.828 112.552 240.789C112.591 240.696 112.669 240.634 112.762 240.595C112.855 240.564 112.956 240.564 113.049 240.611C113.142 240.65 113.212 240.727 113.243 240.828C113.282 240.921 113.274 241.022 113.227 241.115C113.165 241.255 111.66 244.56 114.717 247.834C114.787 247.904 114.826 248.005 114.818 248.105C114.818 248.206 114.771 248.299 114.702 248.369C114.663 248.408 114.624 248.431 114.577 248.447C114.546 248.462 114.5 248.47 114.453 248.47Z" fill="#E06A4B"/>
<path d="M136.41 279.039C136.262 279.039 136.115 278.953 136.053 278.806L132.43 270.419C132.344 270.225 132.437 269.992 132.631 269.907C132.825 269.821 133.058 269.915 133.143 270.109L136.767 278.495C136.852 278.689 136.759 278.922 136.565 279.008C136.511 279.031 136.464 279.039 136.41 279.039Z" fill="#E06A4B"/>
<path d="M202.613 256.345C200.673 249.743 192.38 247.772 185.591 247.167C183.806 246.445 181.735 246.181 179.345 246.476L166.978 254.879L159.065 248.61C155.178 247.997 151.733 249.51 149.033 252.109L136.984 263.63C135.13 265.407 134.85 268.433 136.332 270.574L150.546 291.033L145.433 315.868L193.668 315.046L195.623 276.571L204.979 275.346C206.073 275.198 206.81 274.143 206.554 273.065C205.445 268.278 202.691 256.593 202.613 256.345Z" fill="#5C69AB"/>
<path d="M104.08 431.004V440.02L87.3141 439.57L86.6934 430.71L104.08 431.004Z" fill="#E8A185"/>
<path d="M85.7081 438.817L83.109 441.269L67.9411 455.164C66.9403 456.088 67.6075 457.756 68.973 457.732L103.149 457.026C104.065 457.011 104.778 456.243 104.747 455.327L104.592 439.321L85.7081 438.817Z" fill="#EB8D2E"/>
<path d="M67.9411 455.164L68.4687 454.683C68.7247 454.916 69.0583 455.071 69.4695 455.064L103.646 454.357C104.065 454.35 104.445 454.179 104.724 453.908L104.74 455.327C104.778 456.243 104.057 457.003 103.141 457.026L68.9652 457.732C67.6075 457.756 66.9403 456.08 67.9411 455.164Z" fill="#111111"/>
<path d="M72.8988 455.265C72.6893 455.265 72.5109 455.094 72.5109 454.885C72.5109 454.668 72.6815 454.497 72.891 454.489L104.693 453.993C104.934 454.008 105.081 454.163 105.089 454.373C105.089 454.59 104.918 454.761 104.709 454.768L72.8988 455.265Z" fill="white"/>
<path d="M97.4156 449.896C96.7872 449.896 96.1665 449.71 95.6389 449.353C94.9252 448.872 94.4441 448.151 94.2812 447.313C94.1183 446.475 94.289 445.614 94.7622 444.907C95.2433 444.194 95.9648 443.713 96.8027 443.55C97.6406 443.379 98.5018 443.558 99.2079 444.031C99.9216 444.512 100.403 445.233 100.566 446.071C100.729 446.909 100.558 447.77 100.085 448.476C99.6035 449.19 98.882 449.671 98.0441 449.834C97.8346 449.881 97.6251 449.896 97.4156 449.896ZM97.4234 444.256C97.2682 444.256 97.1131 444.271 96.9501 444.302C95.6312 444.558 94.7778 445.846 95.0338 447.157C95.1579 447.794 95.5226 448.345 96.0657 448.709C96.6088 449.074 97.2527 449.198 97.8889 449.074C98.5251 448.95 99.076 448.585 99.4406 448.042C99.8053 447.499 99.9294 446.855 99.8053 446.219C99.5803 445.063 98.5639 444.256 97.4234 444.256Z" fill="white"/>
<path d="M85.9952 444.76C85.8943 444.76 85.7857 444.721 85.7081 444.636L82.8297 441.533C82.6823 441.377 82.69 441.129 82.853 440.982C83.0081 440.834 83.2564 440.842 83.4038 441.005L86.2822 444.108C86.4296 444.264 86.4219 444.512 86.2589 444.659C86.1814 444.721 86.0883 444.76 85.9952 444.76Z" fill="white"/>
<path d="M83.6598 446.987C83.559 446.987 83.4504 446.948 83.3728 446.863L80.4866 443.759C80.3392 443.604 80.347 443.356 80.5099 443.208C80.6651 443.061 80.9134 443.069 81.0608 443.232L83.9469 446.335C84.0943 446.49 84.0866 446.738 83.9236 446.886C83.846 446.956 83.7529 446.987 83.6598 446.987Z" fill="white"/>
<path d="M81.4642 449.182C81.3633 449.182 81.2547 449.144 81.1771 449.058L78.2909 445.955C78.1435 445.8 78.1513 445.551 78.3142 445.404C78.4694 445.257 78.7177 445.264 78.8651 445.427L81.7512 448.531C81.8986 448.686 81.8909 448.934 81.728 449.082C81.6504 449.151 81.5573 449.182 81.4642 449.182Z" fill="white"/>
<path d="M85.8633 440.865C85.7934 440.865 85.7236 440.85 85.6616 440.819C84.5366 440.252 84.8702 435.512 84.9245 435.194C85.1029 434.185 86.0728 433.518 87.0736 433.697C87.5624 433.782 87.9813 434.053 88.2684 434.457C88.5555 434.86 88.6563 435.357 88.571 435.838C88.4624 436.451 86.8253 440.431 86.0883 440.803C86.0184 440.85 85.9409 440.865 85.8633 440.865ZM86.7477 434.449C86.2357 434.449 85.7779 434.814 85.6848 435.334C85.5297 436.218 85.584 439.05 85.8943 439.919C86.4607 439.096 87.6865 436.365 87.8029 435.714C87.8494 435.434 87.7874 435.147 87.6245 434.907C87.4615 434.674 87.2132 434.511 86.9339 434.465C86.8796 434.457 86.8098 434.449 86.7477 434.449Z" fill="white"/>
<path d="M85.3977 440.881C83.9857 440.881 81.0064 439.849 80.7349 439.686C79.8504 439.174 79.5478 438.041 80.0599 437.157C80.3082 436.73 80.7038 436.42 81.1849 436.296C81.6581 436.164 82.1624 436.233 82.5891 436.482C83.2098 436.839 85.8788 438.98 86.1581 440.082C86.2279 440.353 86.1581 440.547 86.096 440.664C85.9951 440.811 85.7469 440.881 85.3977 440.881ZM81.6581 437.009C81.565 437.009 81.4719 437.025 81.3788 437.048C81.0995 437.126 80.8668 437.296 80.7271 437.545C80.4323 438.057 80.603 438.716 81.1228 439.019C81.7202 439.368 84.5365 440.082 85.3977 440.136C85.0952 439.484 82.9848 437.607 82.2012 437.157C82.0305 437.056 81.8443 437.009 81.6581 437.009Z" fill="white"/>
<path d="M147.861 430.741V440.524L131.095 440.074L130.475 431.214L147.861 430.741Z" fill="#E8A185"/>
<path d="M130.079 440.051L127.48 442.502L112.312 456.398C111.311 457.321 111.978 458.989 113.344 458.966L147.52 458.26C148.436 458.244 149.149 457.476 149.118 456.561L148.963 440.555L130.079 440.051Z" fill="#EB8D2E"/>
<path d="M112.32 456.398L112.847 455.917C113.103 456.15 113.437 456.305 113.848 456.297L148.024 455.591C148.443 455.583 148.823 455.413 149.103 455.141L149.118 456.561C149.157 457.476 148.436 458.237 147.52 458.26L113.344 458.966C111.986 458.989 111.311 457.313 112.32 456.398Z" fill="#111111"/>
<path d="M117.277 456.499C117.068 456.499 116.889 456.328 116.889 456.119C116.889 455.901 117.06 455.731 117.27 455.723L149.072 455.226C149.304 455.219 149.46 455.397 149.467 455.606C149.467 455.824 149.297 455.994 149.087 456.002L117.277 456.499Z" fill="white"/>
<path d="M141.794 451.13C141.166 451.13 140.545 450.944 140.018 450.587C139.304 450.106 138.823 449.384 138.66 448.546C138.497 447.708 138.668 446.847 139.141 446.141C139.622 445.427 140.343 444.946 141.181 444.783C142.019 444.613 142.873 444.791 143.586 445.264C144.3 445.745 144.781 446.467 144.944 447.305C145.107 448.143 144.936 449.004 144.463 449.71C143.982 450.424 143.261 450.905 142.423 451.068C142.205 451.114 141.996 451.13 141.794 451.13ZM141.802 445.489C141.647 445.489 141.492 445.505 141.329 445.536C140.01 445.792 139.156 447.08 139.412 448.391C139.668 449.71 140.956 450.563 142.268 450.307C143.586 450.051 144.44 448.763 144.184 447.452C143.959 446.296 142.935 445.489 141.802 445.489Z" fill="white"/>
<path d="M130.366 445.994C130.265 445.994 130.156 445.955 130.079 445.869L127.193 442.766C127.045 442.611 127.053 442.363 127.216 442.215C127.371 442.068 127.619 442.076 127.767 442.239L130.653 445.342C130.8 445.497 130.793 445.745 130.63 445.893C130.56 445.955 130.459 445.994 130.366 445.994Z" fill="white"/>
<path d="M128.031 448.22C127.93 448.22 127.821 448.182 127.744 448.096L124.865 444.993C124.718 444.838 124.726 444.589 124.888 444.442C125.044 444.295 125.292 444.302 125.439 444.465L128.318 447.569C128.465 447.724 128.457 447.972 128.294 448.119C128.225 448.189 128.124 448.22 128.031 448.22Z" fill="white"/>
<path d="M125.835 450.416C125.734 450.416 125.626 450.377 125.548 450.292L122.662 447.189C122.514 447.033 122.522 446.785 122.685 446.638C122.84 446.49 123.089 446.498 123.236 446.661L126.122 449.764C126.269 449.919 126.262 450.168 126.099 450.315C126.029 450.385 125.936 450.416 125.835 450.416Z" fill="white"/>
<path d="M130.242 442.107C130.172 442.107 130.102 442.091 130.04 442.06C128.907 441.494 129.249 436.753 129.303 436.435C129.482 435.434 130.444 434.76 131.452 434.938C132.453 435.116 133.128 436.078 132.95 437.087C132.841 437.7 131.204 441.68 130.467 442.053C130.389 442.084 130.319 442.107 130.242 442.107ZM131.126 435.683C130.614 435.683 130.157 436.047 130.071 436.567C129.916 437.452 129.97 440.284 130.281 441.153C130.847 440.33 132.073 437.599 132.189 436.947C132.29 436.366 131.902 435.807 131.32 435.698C131.25 435.691 131.188 435.683 131.126 435.683Z" fill="white"/>
<path d="M129.769 442.114C128.357 442.114 125.377 441.083 125.098 440.92C124.671 440.671 124.361 440.276 124.237 439.795C124.113 439.314 124.175 438.817 124.423 438.39C124.935 437.506 126.068 437.203 126.952 437.715C127.573 438.072 130.242 440.214 130.521 441.315C130.591 441.587 130.521 441.781 130.459 441.897C130.374 442.052 130.118 442.114 129.769 442.114ZM126.029 438.243C125.657 438.243 125.292 438.437 125.098 438.778C124.951 439.027 124.92 439.314 124.989 439.593C125.067 439.872 125.238 440.105 125.486 440.245C126.083 440.594 128.9 441.308 129.761 441.362C129.458 440.702 127.348 438.833 126.564 438.383C126.401 438.289 126.215 438.243 126.029 438.243Z" fill="white"/>
<path d="M148.66 288.326C148.513 288.326 148.366 288.24 148.304 288.093L145.968 282.778C144.207 278.767 144.091 274.306 145.642 270.217L148.435 262.854C148.513 262.653 148.738 262.552 148.94 262.629C149.142 262.707 149.242 262.932 149.165 263.126L146.372 270.489C144.89 274.391 144.998 278.643 146.682 282.468L149.017 287.783C149.103 287.976 149.017 288.209 148.816 288.295C148.769 288.318 148.715 288.326 148.66 288.326Z" fill="#111111"/>
<path d="M210.977 293.997L203.785 275.47L183.085 278.255L189.168 295.968L156.962 298.388C156.155 297.721 155.294 297.108 154.41 296.58C154.41 296.58 146.302 292.763 143.338 291.995C143.02 291.91 142.694 291.84 142.368 291.863C142.043 291.894 141.709 292.042 141.538 292.329C141.321 292.693 141.43 293.167 141.593 293.562C142.097 294.788 143.005 295.781 143.912 296.767C142.756 296.805 141.523 296.837 140.165 296.852C137.318 297.093 132.569 296.922 133.105 300.63C133.4 301.903 134.431 302.12 135.502 301.996C134.036 302.461 132.701 303.315 133.4 305.099C133.795 306.806 135.347 306.752 136.875 306.395C135.96 306.76 135.285 307.349 135.587 308.482C135.906 310.561 137.876 310.685 139.529 310.251C138.086 311.128 139.855 313.339 142.058 313.347L154.006 314.006C154.991 314.084 156.21 313.649 157.404 313.028L198.936 313.393C208.936 313.486 215.484 302.942 210.977 293.997ZM138.629 305.922C138.877 305.852 139.102 305.798 139.304 305.759C139.11 305.813 138.877 305.867 138.629 305.922Z" fill="#E8A185"/>
<path opacity="0.36" d="M143.897 296.775L150.391 297.116C150.391 297.116 143.517 294.881 142.337 294.928L143.897 296.775Z" fill="#E06A4B"/>
<path d="M134.897 302.469C134.734 302.469 134.579 302.361 134.525 302.198C134.462 301.996 134.579 301.779 134.781 301.709C135.401 301.515 138.66 301.43 139.304 301.414C139.513 301.414 139.699 301.577 139.699 301.794C139.707 302.012 139.537 302.182 139.319 302.19C137.861 302.221 135.409 302.322 135.006 302.446C134.975 302.461 134.936 302.469 134.897 302.469Z" fill="#E06A4B"/>
<path d="M136.534 306.86C136.325 306.86 136.154 306.698 136.146 306.488C136.138 306.271 136.301 306.092 136.518 306.085L140.041 305.937C140.243 305.929 140.437 306.092 140.444 306.31C140.452 306.527 140.289 306.705 140.072 306.713L136.55 306.86C136.542 306.86 136.542 306.86 136.534 306.86Z" fill="#E06A4B"/>
<path d="M139.513 310.655C139.312 310.655 139.141 310.499 139.125 310.29C139.11 310.073 139.273 309.894 139.49 309.879L141.383 309.755C141.6 309.739 141.779 309.902 141.794 310.119C141.81 310.336 141.647 310.515 141.43 310.53L139.537 310.655C139.529 310.655 139.521 310.655 139.513 310.655Z" fill="#E06A4B"/>
<path d="M183.077 296.712C182.883 296.712 182.713 296.565 182.689 296.363C182.666 296.154 182.821 295.96 183.031 295.937L191.798 294.998C191.999 294.975 192.201 295.13 192.224 295.339C192.248 295.549 192.093 295.743 191.883 295.766L183.116 296.705C183.108 296.712 183.093 296.712 183.077 296.712Z" fill="#E06A4B"/>
<path d="M123.461 318.972C115.85 318.909 109.255 322.486 105.058 327.933C93.5286 331.036 85.0331 341.401 84.7072 353.784L82.3253 427.715C82.271 429.383 83.59 430.764 85.2581 430.803L104.445 431.175C105.547 431.198 106.509 430.43 106.741 429.352L113.313 398.45L120.87 429.608C121.157 430.795 122.227 431.617 123.445 431.602L150.367 431.214C151.469 431.198 152.253 430.143 151.95 429.088L130.638 354.56L164.496 353.986C183.938 353.66 200.115 338.957 202.31 319.639L123.461 318.972Z" fill="#111111"/>
<path d="M113.561 400.723C113.383 400.723 113.227 400.606 113.181 400.428L100.55 347.585C98.8044 340.517 100.387 333.193 104.903 327.475C109.41 321.765 116.176 318.514 123.453 318.584L202.279 319.243C202.497 319.243 202.667 319.422 202.667 319.631C202.667 319.848 202.489 320.019 202.279 320.019L123.453 319.359C116.408 319.313 109.876 322.432 105.515 327.956C101.155 333.48 99.619 340.563 101.31 347.399L113.941 400.25C113.988 400.459 113.864 400.669 113.654 400.715C113.623 400.723 113.592 400.723 113.561 400.723Z" fill="white"/>
<path d="M193.38 241.945C191.162 240.308 188.392 239.09 187.22 236.592C185.963 233.9 187.709 228.585 187.709 228.585C188.997 225.583 188.392 221.983 186.6 219.236L186.437 215.442C186.46 215.047 186.452 214.651 186.429 214.263C189.121 213.122 191.805 211.059 193.07 209.321C195.39 206.14 194.684 201.686 191.503 199.367C188.322 197.047 183.869 197.753 181.549 200.934C180.765 202.005 180.036 203.642 179.524 205.418C178.523 205.1 177.452 204.937 176.335 204.953L171.277 205.046L165.357 202.842C160.244 200.934 154.635 203.983 153.44 209.305L152.152 215.085L152.788 215.171C152.323 216.521 151.997 217.972 151.849 219.484L151.376 224.333L154.324 224.621C154.65 225.699 155.837 230.036 154.735 232.379C153.572 234.877 150.794 236.095 148.575 237.732C146.356 239.369 144.502 242.473 146.046 244.762C148.854 243.024 152.966 243.908 154.805 246.647C156.078 244.862 157.35 243.078 158.615 241.301C157.823 243.272 157.559 245.444 157.862 247.547C160.709 248.191 163.704 248.191 166.544 247.547C166.893 247.469 167.258 247.368 167.552 247.174C168.483 247.679 169.43 248.152 170.377 248.633C170.904 246.95 171.68 245.343 172.65 243.869C172.968 243.706 173.278 243.551 173.589 243.388C173.604 245.398 173.62 247.415 173.635 249.424C173.643 250.03 173.666 250.689 174.07 251.139C174.395 251.504 174.892 251.643 175.365 251.752C178.213 252.396 181.2 252.396 184.047 251.752C184.35 249.649 184.086 247.477 183.294 245.506C184.567 247.291 185.839 249.075 187.104 250.852C188.95 248.113 193.062 247.229 195.863 248.967C197.454 246.693 195.599 243.59 193.38 241.945Z" fill="#111111"/>
<path d="M179.462 219.686L177.809 219.632L175.854 223.216C175.148 224.512 173.185 224.116 173.038 222.642L172.301 215.171C172.169 213.805 170.446 213.293 169.585 214.364L167.925 216.428L162.106 216.218L160.826 211.369L159.833 216.117L154.968 215.466L152.586 228.927C151.648 234.226 154.596 239.269 159.321 240.983L160.027 247.128C160.578 251.923 165.07 255.383 170.012 254.817L170.214 254.793C175.156 254.227 179.617 250.937 179.066 246.143L176.599 230.121L179.089 230.207C181.944 230.308 184.365 228.05 184.466 225.187L184.474 225.071C184.575 222.208 182.317 219.787 179.462 219.686Z" fill="#E8A185"/>
<path d="M154.154 223.139C154.053 223.69 154.417 224.209 154.968 224.31C155.519 224.411 156.039 224.046 156.14 223.496C156.241 222.945 155.876 222.425 155.325 222.324C154.774 222.223 154.247 222.588 154.154 223.139Z" fill="#111111"/>
<path d="M162.316 223.488C162.362 224.093 162.89 224.551 163.495 224.504C164.1 224.458 164.558 223.93 164.511 223.325C164.465 222.72 163.937 222.262 163.332 222.309C162.719 222.347 162.269 222.883 162.316 223.488Z" fill="#111111"/>
<path d="M160.019 236.499C160.066 236.514 160.112 236.507 160.159 236.491C160.205 236.468 161.315 235.987 162.137 236.856C162.215 236.941 162.347 236.941 162.432 236.864C162.517 236.786 162.517 236.654 162.44 236.569C161.408 235.475 159.996 236.103 159.98 236.111C159.879 236.158 159.833 236.282 159.879 236.39C159.91 236.445 159.957 236.483 160.019 236.499Z" fill="#E06A4B"/>
<path d="M167.359 219.399C166.963 219.5 166.49 219.376 166.032 219.291C165.566 219.19 165.101 219.097 164.69 219.034C164.278 218.972 163.805 218.91 163.332 218.864C162.866 218.81 162.378 218.778 162.036 218.561C161.71 218.36 161.633 217.91 162.129 217.452C162.603 217.002 163.712 216.614 165.07 216.823C166.428 217.041 167.343 217.754 167.638 218.321C167.964 218.903 167.739 219.306 167.359 219.399Z" fill="#111111"/>
<path d="M153.075 219.019C153.347 219.097 153.673 219.004 153.991 218.934C154.309 218.856 154.627 218.786 154.914 218.74C155.193 218.693 155.519 218.647 155.845 218.616C156.171 218.577 156.504 218.554 156.729 218.383C156.954 218.22 156.993 217.871 156.636 217.514C156.303 217.157 155.519 216.847 154.588 217.01C153.657 217.173 153.036 217.731 152.85 218.181C152.648 218.631 152.811 218.949 153.075 219.019Z" fill="#111111"/>
<path d="M164.55 224.559C164.55 224.559 163.565 223.853 162.61 224.698L164.55 224.559Z" fill="#E8A185"/>
<path d="M162.61 225.086C162.502 225.086 162.393 225.04 162.316 224.954C162.176 224.791 162.191 224.551 162.347 224.403C163.285 223.573 164.34 223.938 164.767 224.241C164.938 224.365 164.984 224.605 164.853 224.784C164.728 224.954 164.488 225.001 164.309 224.877C164.232 224.822 163.541 224.38 162.851 224.985C162.797 225.055 162.703 225.086 162.61 225.086Z" fill="#E06A4B"/>
<path d="M155.705 224.155C155.705 224.155 155.1 223.744 154.565 224.318L155.705 224.155Z" fill="#E8A185"/>
<path d="M154.565 224.706C154.472 224.706 154.379 224.675 154.301 224.605C154.146 224.458 154.138 224.217 154.278 224.054C154.883 223.41 155.612 223.628 155.922 223.829C156.101 223.946 156.147 224.186 156.031 224.365C155.915 224.543 155.674 224.59 155.496 224.473C155.41 224.419 155.123 224.279 154.852 224.582C154.774 224.667 154.666 224.706 154.565 224.706Z" fill="#E06A4B"/>
<path d="M164.1 228.228C163.759 228.003 163.301 228.058 162.998 228.337C162.447 228.841 161.245 229.741 159.515 229.92C159.088 229.966 158.871 230.455 159.057 230.843C159.46 231.689 160.523 232.992 162.758 231.952C165.466 230.665 164.992 228.818 164.1 228.228Z" fill="white"/>
<path d="M158.925 221.098L158.529 225.21L157.49 225.272C157.04 225.21 156.621 225.528 156.559 225.978L156.458 226.731C156.372 227.351 156.799 227.918 157.42 228.011L159.29 228.29" fill="#E8A185"/>
<path d="M159.29 228.67C159.274 228.67 159.251 228.67 159.235 228.663L157.366 228.383C156.543 228.259 155.969 227.491 156.078 226.669L156.179 225.916C156.225 225.598 156.388 225.311 156.644 225.117C156.9 224.923 157.218 224.838 157.544 224.876L158.172 224.83L158.537 221.044C158.56 220.834 158.754 220.671 158.964 220.695C159.173 220.718 159.336 220.904 159.313 221.121L158.886 225.559L157.521 225.645C157.327 225.629 157.21 225.66 157.117 225.73C157.024 225.8 156.962 225.901 156.947 226.017L156.846 226.77C156.791 227.173 157.071 227.553 157.482 227.615L159.352 227.895C159.561 227.926 159.709 228.12 159.678 228.337C159.647 228.531 159.484 228.67 159.29 228.67Z" fill="#E06A4B"/>
<path d="M179.819 226.762C179.749 226.762 179.671 226.739 179.609 226.7L177.91 225.59C177.817 225.528 177.755 225.428 177.739 225.319C177.724 225.21 177.763 225.094 177.832 225.009L179.648 222.991C179.788 222.828 180.036 222.821 180.199 222.96C180.362 223.1 180.369 223.348 180.23 223.511L178.717 225.195L180.036 226.056C180.214 226.172 180.269 226.413 180.152 226.591C180.067 226.7 179.943 226.762 179.819 226.762Z" fill="#E06A4B"/>
<path d="M159.328 241.107C159.328 241.107 168.817 241.837 170.695 238.229C170.695 238.229 170.904 244.265 159.949 246.476L159.328 241.107Z" fill="#E06A4B"/>
<path d="M180.005 232.402C178.779 232.402 177.747 231.448 177.67 230.207C177.592 228.919 178.577 227.809 179.865 227.732C181.145 227.654 182.263 228.632 182.34 229.92C182.379 230.54 182.169 231.146 181.758 231.611C181.347 232.077 180.773 232.356 180.152 232.395C180.106 232.402 180.059 232.402 180.005 232.402ZM180.013 228.5C179.982 228.5 179.951 228.5 179.92 228.5C179.058 228.554 178.399 229.299 178.453 230.152C178.507 231.014 179.245 231.665 180.113 231.619C180.532 231.596 180.913 231.409 181.192 231.091C181.471 230.781 181.603 230.377 181.58 229.958C181.518 229.144 180.827 228.5 180.013 228.5Z" fill="white"/>
<path d="M182.115 250.503L179.159 244.443C178.957 244.032 178.329 243.916 177.949 244.234L167.265 252.97L160.034 245.405C159.422 244.761 158.452 245.219 158.382 246.189L156.435 251.186C156.202 251.775 156.326 252.435 156.745 252.923L161.78 258.688C162.137 259.34 162.921 259.386 163.324 258.781L167.219 253.971L173.333 259.976C174.008 260.55 175.117 260.472 175.676 259.813L181.882 252.435C182.332 251.892 182.425 251.139 182.115 250.503Z" fill="#5C69AB"/>
<path d="M174.419 260.736C173.922 260.736 173.441 260.566 173.076 260.263L167.25 254.537L163.627 259.014C163.386 259.379 162.975 259.596 162.525 259.58C162.09 259.557 161.695 259.309 161.462 258.905L156.45 253.172C155.93 252.582 155.791 251.767 156.07 251.038L157.994 246.088C158.064 245.475 158.436 244.963 158.956 244.785C159.437 244.614 159.941 244.746 160.314 245.134L167.296 252.442L177.708 243.931C177.988 243.699 178.368 243.613 178.74 243.691C179.089 243.768 179.369 243.978 179.508 244.273L182.464 250.332C182.837 251.1 182.728 252.016 182.177 252.667L175.97 260.046C175.645 260.434 175.148 260.682 174.605 260.721C174.535 260.736 174.473 260.736 174.419 260.736ZM167.265 253.467L173.596 259.689C173.821 259.883 174.178 259.984 174.527 259.96C174.869 259.929 175.171 259.782 175.365 259.557L181.572 252.179C181.929 251.76 181.999 251.17 181.758 250.681L178.802 244.622C178.763 244.544 178.678 244.482 178.562 244.459C178.43 244.428 178.282 244.459 178.189 244.537L167.265 253.467ZM159.367 245.491C159.313 245.491 159.266 245.499 159.212 245.522C158.964 245.607 158.785 245.886 158.762 246.22L158.739 246.329L156.791 251.325C156.613 251.775 156.706 252.295 157.032 252.667L162.121 258.502C162.23 258.696 162.385 258.812 162.564 258.82C162.734 258.828 162.89 258.735 163.006 258.564L167.157 253.436L159.747 245.685C159.631 245.553 159.507 245.491 159.367 245.491Z" fill="#111111"/>
<path d="M5.43876 459.346C5.42324 459.346 5.40772 459.346 5.38444 459.346C5.17496 459.315 5.0198 459.121 5.05083 458.911L22.8023 327.164L42.8347 457.693C42.8657 457.903 42.7183 458.105 42.5089 458.136C42.2916 458.167 42.0976 458.027 42.0666 457.81L22.8488 332.603L5.81115 459.012C5.79563 459.206 5.62496 459.346 5.43876 459.346Z" fill="#111111"/>
<path d="M195.638 459.346C195.623 459.346 195.607 459.346 195.584 459.346C195.374 459.315 195.219 459.121 195.25 458.911L213.002 327.164L233.034 457.693C233.065 457.903 232.918 458.105 232.708 458.136C232.491 458.167 232.297 458.027 232.266 457.81L213.048 332.603L196.018 459.012C195.995 459.206 195.824 459.346 195.638 459.346Z" fill="#111111"/>
<path d="M233.639 329.616H1.71462C0.768084 329.616 0 328.848 0 327.901V314.976C0 314.029 0.768084 313.261 1.71462 313.261H233.632C234.578 313.261 235.346 314.029 235.346 314.976V327.901C235.354 328.848 234.586 329.616 233.639 329.616Z" fill="#EB8D2E"/>
<path opacity="0.46" d="M232.6 322.781H2.75426C1.23359 322.781 0 323.844 0 325.155V327.25C0 328.561 1.23359 329.624 2.75426 329.624H232.6C234.12 329.624 235.354 328.561 235.354 327.25V325.155C235.354 323.844 234.12 322.781 232.6 322.781Z" fill="#E16C2E"/>
<path d="M36.1235 308.35H33.6796C33.4624 308.35 33.2917 308.179 33.2917 307.962C33.2917 307.745 33.4624 307.574 33.6796 307.574H36.1235C38.0011 307.574 39.5295 306.046 39.5295 304.168V302.058C39.5295 301.484 39.064 301.011 38.4821 301.011H33.6796C33.4624 301.011 33.2917 300.84 33.2917 300.623C33.2917 300.405 33.4624 300.235 33.6796 300.235H38.4821C39.483 300.235 40.3054 301.049 40.3054 302.058V304.168C40.3054 306.473 38.4278 308.35 36.1235 308.35Z" fill="#111111"/>
<path d="M35.5804 313.269H20.6298V296.511C20.6298 295.843 21.1651 295.308 21.8324 295.308H34.5331C35.1149 295.308 35.5804 295.774 35.5804 296.355V313.269Z" fill="#5C69AB"/>
<path d="M63.2861 273.522H102.94C104.36 273.522 105.601 274.469 105.981 275.834L115.113 308.948H116.238H141.678C142.159 308.948 142.446 309.483 142.182 309.886L140.087 313.036H116.238H70.9281L60.2369 277.611C59.6318 275.578 61.1602 273.522 63.2861 273.522Z" fill="#2D2D30"/>
<path d="M67.53 313.122H112.84L102.575 275.92C102.195 274.554 100.954 273.608 99.5338 273.608H59.8801C57.7543 273.608 56.2258 275.664 56.8388 277.704L67.53 313.122Z" fill="#111111"/>
<path d="M82.147 299.862C79.3384 299.862 77.0574 297.581 77.0574 294.773C77.0574 291.964 79.3384 289.683 82.147 289.683C84.9556 289.683 87.2366 291.964 87.2366 294.773C87.2288 297.574 84.9478 299.862 82.147 299.862ZM82.147 290.459C79.7729 290.459 77.8333 292.391 77.8333 294.773C77.8333 297.147 79.7651 299.086 82.147 299.086C84.5289 299.086 86.4607 297.155 86.4607 294.773C86.453 292.391 84.5211 290.459 82.147 290.459Z" fill="#F6EEE3"/>
<path d="M185.335 285.773C185.172 285.773 185.017 285.672 184.963 285.501L182.744 278.666L180.649 278.86C179.338 278.984 178.182 278.053 178.011 276.75L176.7 266.633C176.669 266.423 176.824 266.229 177.033 266.198C177.243 266.167 177.437 266.322 177.468 266.532L178.779 276.649C178.895 277.533 179.687 278.17 180.571 278.084L183.287 277.836L185.7 285.261C185.762 285.463 185.653 285.68 185.451 285.75C185.42 285.765 185.382 285.773 185.335 285.773Z" fill="#111111"/>
<path d="M127.01 24.59H103.76C103.34 24.59 103 24.25 103 23.83V13.69C103 13.27 103.34 12.93 103.76 12.93H127C127.42 12.93 127.76 13.27 127.76 13.69V23.83C127.77 24.25 127.43 24.59 127.01 24.59ZM104 23.59H126.77V13.93H104V23.59Z" fill="#5C69AB"/>
<path d="M153.92 24.59H130.68C130.26 24.59 129.92 24.25 129.92 23.83V13.69C129.92 13.27 130.26 12.93 130.68 12.93H153.92C154.34 12.93 154.68 13.27 154.68 13.69V23.83C154.68 24.25 154.34 24.59 153.92 24.59ZM130.91 23.59H153.68V13.93H130.91V23.59Z" fill="#5C69AB"/>
<path d="M138.07 11.66H114.83C114.41 11.66 114.07 11.32 114.07 10.9V0.760002C114.07 0.340002 114.41 0 114.83 0H138.07C138.49 0 138.83 0.340002 138.83 0.760002V10.9C138.84 11.32 138.49 11.66 138.07 11.66ZM115.07 10.66H137.84V1H115.07V10.66Z" fill="#5C69AB"/>
<path d="M138.07 37.99H114.83C114.41 37.99 114.07 37.65 114.07 37.23V27.09C114.07 26.67 114.41 26.33 114.83 26.33H138.07C138.49 26.33 138.83 26.67 138.83 27.09V37.23C138.84 37.65 138.49 37.99 138.07 37.99ZM115.07 36.99H137.84V27.33H115.07V36.99Z" fill="#5C69AB"/>
<path d="M28.44 142.28H13.76C13.34 142.28 13 141.94 13 141.52V131.38C13 130.96 13.34 130.62 13.76 130.62H28.44C28.86 130.62 29.2 130.96 29.2 131.38V141.52C29.2 141.94 28.86 142.28 28.44 142.28ZM14 141.28H28.2V131.62H14V141.28Z" fill="#5C69AB"/>
<path d="M55.35 142.28H32.11C31.69 142.28 31.35 141.94 31.35 141.52V131.38C31.35 130.96 31.69 130.62 32.11 130.62H55.35C55.77 130.62 56.11 130.96 56.11 131.38V141.52C56.12 141.94 55.77 142.28 55.35 142.28ZM32.35 141.28H55.12V131.62H32.35V141.28Z" fill="#5C69AB"/>
<path d="M39.51 129.35H16.27C15.85 129.35 15.51 129.01 15.51 128.59V118.45C15.51 118.03 15.85 117.69 16.27 117.69H39.51C39.93 117.69 40.27 118.03 40.27 118.45V128.59C40.27 129 39.93 129.35 39.51 129.35ZM16.5 128.35H39.27V118.69H16.5V128.35Z" fill="#5C69AB"/>
<path d="M39.51 155.68H16.27C15.85 155.68 15.51 155.34 15.51 154.92V144.78C15.51 144.36 15.85 144.02 16.27 144.02H39.51C39.93 144.02 40.27 144.36 40.27 144.78V154.92C40.27 155.33 39.93 155.68 39.51 155.68ZM16.5 154.68H39.27V145.02H16.5V154.68Z" fill="#5C69AB"/>
<path d="M234.2 152.06H210.67C210.25 152.06 209.91 151.72 209.91 151.3V141.16C209.91 140.74 210.25 140.4 210.67 140.4H234.2C234.62 140.4 234.96 140.74 234.96 141.16V151.3C234.96 151.72 234.62 152.06 234.2 152.06ZM210.91 151.06H233.96V141.4H210.91V151.06Z" fill="#5C69AB"/>
<path d="M207 152.06H183.76C183.34 152.06 183 151.72 183 151.3V141.16C183 140.74 183.34 140.4 183.76 140.4H207C207.42 140.4 207.76 140.74 207.76 141.16V151.3C207.77 151.72 207.42 152.06 207 152.06ZM184 151.06H206.77V141.4H184V151.06Z" fill="#5C69AB"/>
<path d="M222.85 164.99H199.61C199.19 164.99 198.85 164.65 198.85 164.23V154.09C198.85 153.67 199.19 153.33 199.61 153.33H222.85C223.27 153.33 223.61 153.67 223.61 154.09V164.23C223.61 164.65 223.27 164.99 222.85 164.99ZM199.84 163.99H222.61V154.33H199.84V163.99Z" fill="#5C69AB"/>
<path d="M222.85 138.66H199.61C199.19 138.66 198.85 138.32 198.85 137.9V127.76C198.85 127.34 199.19 127 199.61 127H222.85C223.27 127 223.61 127.34 223.61 127.76V137.9C223.61 138.32 223.27 138.66 222.85 138.66ZM199.84 137.66H222.61V128H199.84V137.66Z" fill="#5C69AB"/>
</svg>
